<?xml version="1.0" encoding="UTF-8"?>
<svg xmlns="http://www.w3.org/2000/svg" width="346" height="346" viewBox="0 0 346 346" fill="none">
  <path d="M329.165 166.731C329.118 167.948 328.641 168.967 327.734 169.787C326.837 170.618 325.779 171.009 324.561 170.962C323.343 170.915 322.314 170.443 321.473 169.545C320.642 168.648 320.25 167.596 320.297 166.388C320.344 165.16 320.817 164.125 321.715 163.284C322.623 162.444 323.686 162.047 324.904 162.094C326.132 162.141 327.161 162.614 327.992 163.511C328.822 164.419 329.213 165.492 329.165 166.731Z" fill="white"></path>
  <path d="M314.504 210.779L316.708 201.844L313.051 199.574L314.077 195.417L333.085 207.412L331.629 213.314L309.197 215.199L310.204 211.118L314.504 210.779ZM317.626 210.583L329.295 209.664L319.377 203.484L317.626 210.583Z" fill="white"></path>
  <path d="M309.984 234.02L308.415 237.767L307.738 237.484C304.999 236.337 303.435 235.096 303.047 233.758C302.667 232.425 303.194 230.048 304.625 226.628C306.25 222.746 307.884 220.623 309.526 220.26C311.169 219.898 314.748 220.871 320.263 223.179C323.511 224.539 325.391 226.037 325.903 227.674C326.424 229.315 325.878 232.062 324.265 235.915C323.091 238.721 321.884 240.418 320.644 241.006C319.414 241.597 317.55 241.37 315.052 240.325L314.599 240.152L316.167 236.405L316.672 236.616C317.959 237.155 318.883 237.254 319.444 236.912C320.01 236.585 320.655 235.556 321.379 233.827C322.349 231.511 322.648 229.999 322.279 229.291C321.905 228.592 320.32 227.658 317.523 226.487C313.757 224.911 311.441 224.184 310.576 224.308C309.707 224.441 308.794 225.651 307.837 227.938C307.061 229.793 306.75 231.074 306.906 231.783C307.057 232.501 307.786 233.133 309.092 233.68L309.984 234.02Z" fill="white"></path>
  <path d="M299.574 238.738L317.734 249.922L312.22 258.876C310.849 261.102 309.519 262.399 308.228 262.766C306.937 263.134 305.281 262.695 303.259 261.449C301.423 260.319 300.299 259.333 299.887 258.492C299.469 257.66 299.534 256.513 300.079 255.051L299.96 254.977C298.595 256.914 296.8 257.197 294.574 255.826L290.569 253.36L292.691 249.914L296.004 251.954C297.876 253.107 299.38 252.76 300.516 250.915L303.572 245.953L297.452 242.184L299.574 238.738ZM306.472 247.739L303.424 252.688C302.698 253.868 302.426 254.777 302.608 255.415C302.793 256.067 303.52 256.784 304.788 257.565C306.083 258.363 307.021 258.708 307.601 258.6C308.184 258.507 308.823 257.897 309.517 256.77L312.712 251.582L306.472 247.739Z" fill="white"></path>
  <path d="M298.163 278.494C295.64 281.435 293.525 282.908 291.819 282.913C290.121 282.925 287.576 281.476 284.184 278.566C280.476 275.385 278.506 272.954 278.274 271.273C278.036 269.599 279.317 267.13 282.118 263.865C284.641 260.924 286.747 259.429 288.435 259.381C290.131 259.34 292.599 260.71 295.841 263.491C299.699 266.801 301.759 269.303 302.022 270.997C302.284 272.69 300.998 275.19 298.163 278.494ZM295.734 275.998C297.504 273.935 298.273 272.502 298.042 271.7C297.811 270.898 296.126 269.15 292.987 266.457C290.663 264.463 289.091 263.464 288.27 263.461C287.443 263.465 286.175 264.463 284.466 266.455C282.831 268.361 282.116 269.73 282.32 270.564C282.532 271.405 283.99 272.985 286.694 275.305C289.406 277.631 291.163 278.823 291.965 278.88C292.768 278.951 294.024 277.991 295.734 275.998Z" fill="white"></path>
  <path d="M270.436 296.513L273.446 293.949C273.59 294.087 273.692 294.191 273.753 294.262C274.601 295.114 275.29 295.512 275.819 295.459C276.354 295.413 277.241 294.863 278.478 293.81C279.937 292.567 280.778 291.618 281 290.964C281.215 290.316 280.954 289.56 280.218 288.695C279.347 287.672 278.641 287.213 278.1 287.317C277.56 287.422 276.219 288.29 274.079 289.921C271.545 291.846 269.689 292.832 268.51 292.878C267.324 292.931 265.984 292.081 264.492 290.328C262.655 288.171 261.882 286.42 262.175 285.077C262.474 283.741 264.043 281.864 266.882 279.447C269.436 277.272 271.396 276.136 272.764 276.039C274.123 275.948 275.607 276.846 277.214 278.734L277.733 279.319L274.735 281.872L274.429 281.537C273.463 280.403 272.674 279.878 272.062 279.961C271.449 280.045 270.258 280.84 268.49 282.346C267.11 283.522 266.355 284.418 266.224 285.036C266.093 285.653 266.48 286.493 267.385 287.556C268.054 288.341 268.643 288.736 269.152 288.74C269.661 288.758 270.418 288.387 271.425 287.625L273.218 286.283C275.915 284.246 277.861 283.205 279.054 283.16C280.247 283.115 281.634 284.021 283.215 285.876C284.829 287.772 285.474 289.397 285.151 290.753C284.827 292.124 283.377 293.907 280.799 296.102C278.357 298.182 276.464 299.294 275.123 299.437C273.781 299.581 272.395 298.812 270.963 297.131L270.436 296.513Z" fill="white"></path>
  <path d="M250.708 309.726L254.066 307.641C254.188 307.798 254.274 307.916 254.324 307.996C255.035 308.964 255.656 309.461 256.187 309.487C256.724 309.522 257.682 309.111 259.063 308.253C260.691 307.242 261.664 306.43 261.982 305.816C262.291 305.207 262.146 304.42 261.547 303.456C260.838 302.314 260.208 301.755 259.659 301.777C259.109 301.8 257.654 302.458 255.293 303.752C252.501 305.278 250.519 305.975 249.346 305.845C248.165 305.72 246.967 304.679 245.753 302.724C244.259 300.316 243.756 298.47 244.246 297.186C244.741 295.91 246.572 294.288 249.741 292.321C252.59 290.552 254.698 289.721 256.065 289.829C257.423 289.942 258.756 291.052 260.063 293.158L260.489 293.813L257.143 295.89L256.891 295.514C256.105 294.248 255.403 293.611 254.785 293.603C254.167 293.594 252.871 294.203 250.897 295.428C249.358 296.384 248.477 297.158 248.256 297.749C248.034 298.34 248.291 299.229 249.028 300.414C249.572 301.291 250.095 301.769 250.599 301.848C251.099 301.943 251.903 301.688 253.012 301.085L254.985 300.026C257.956 298.414 260.036 297.675 261.222 297.809C262.409 297.943 263.645 299.045 264.931 301.116C266.244 303.231 266.64 304.935 266.118 306.227C265.593 307.534 263.892 309.08 261.016 310.866C258.291 312.558 256.254 313.376 254.906 313.317C253.558 313.259 252.301 312.292 251.136 310.416L250.708 309.726Z" fill="white"></path>
  <path d="M230.852 325.681L223.359 305.713L227.148 304.291L234.641 324.26L230.852 325.681Z" fill="white"></path>
  <path d="M202.775 333.632L197.904 312.867L204.582 311.301L213.187 321.303C213.615 321.802 214.309 322.687 215.271 323.96L216.29 325.293L217.294 326.631L217.446 326.595L217.064 325.24L216.701 323.897L216.032 321.181L213.237 309.27L217.177 308.346L222.048 329.11L215.37 330.677L207.501 321.417C206.805 320.596 205.987 319.595 205.047 318.414L203.859 316.911L202.669 315.393L202.532 315.425L202.892 316.753L203.251 318.081L203.91 320.751L206.715 332.708L202.775 333.632Z" fill="white"></path>
  <path d="M192.46 313.829L193.694 335.122L183.227 335.728C180.253 335.901 178.135 335.371 176.874 334.14C175.603 332.909 174.873 330.666 174.685 327.412C174.377 322.097 174.657 318.654 175.526 317.08C176.395 315.517 178.509 314.638 181.868 314.443L192.46 313.829ZM188.617 317.464L182.861 317.797C180.927 317.91 179.704 318.424 179.194 319.34C178.674 320.268 178.502 322.25 178.678 325.286C178.86 328.427 179.23 330.409 179.789 331.232C180.348 332.055 181.569 332.412 183.451 332.303L189.457 331.955L188.617 317.464Z" fill="white"></path>
  <path d="M152.576 334.69L148.553 334.254L150.081 320.149C150.401 317.197 151.182 315.307 152.425 314.478C153.657 313.647 156.023 313.422 159.523 313.801C163.22 314.202 165.595 314.915 166.647 315.94C167.699 316.966 168.067 318.928 167.753 321.828L166.199 336.166L162.176 335.73L163.73 321.392C163.899 319.828 163.727 318.804 163.214 318.319C162.7 317.844 161.407 317.494 159.336 317.27C157.213 317.04 155.859 317.108 155.275 317.474C154.68 317.839 154.292 318.85 154.113 320.507L152.576 334.69Z" fill="white"></path>
  <path d="M126.018 322.574L129.833 323.608C129.802 323.805 129.774 323.948 129.749 324.039C129.526 325.22 129.586 326.013 129.93 326.419C130.27 326.835 131.225 327.256 132.793 327.681C134.643 328.182 135.901 328.339 136.567 328.153C137.222 327.963 137.699 327.321 137.996 326.225C138.347 324.928 138.327 324.086 137.935 323.699C137.544 323.313 136.07 322.697 133.514 321.854C130.494 320.852 128.632 319.878 127.928 318.932C127.214 317.983 127.158 316.397 127.76 314.175C128.501 311.44 129.508 309.814 130.782 309.296C132.053 308.788 134.488 309.021 138.087 309.997C141.325 310.874 143.37 311.849 144.223 312.922C145.066 313.992 145.164 315.724 144.515 318.117L144.326 318.875L140.525 317.845L140.629 317.404C141.019 315.966 141.006 315.018 140.59 314.56C140.175 314.102 138.846 313.569 136.604 312.962C134.854 312.488 133.688 312.371 133.104 312.612C132.521 312.854 132.047 313.648 131.682 314.995C131.412 315.99 131.42 316.699 131.704 317.122C131.976 317.552 132.711 317.967 133.909 318.367L136.028 319.087C139.234 320.161 141.193 321.177 141.904 322.136C142.616 323.095 142.653 324.751 142.015 327.104C141.364 329.507 140.388 330.958 139.087 331.458C137.773 331.966 135.482 331.776 132.214 330.891C129.118 330.052 127.131 329.119 126.254 328.094C125.377 327.069 125.228 325.49 125.805 323.359L126.018 322.574Z" fill="white"></path>
  <path d="M109.683 319.025L116.761 302.799L120.471 304.417L113.392 320.643L119.035 323.105L117.586 326.428L102.39 319.799L103.84 316.476L109.683 319.025Z" fill="white"></path>
  <path d="M106.671 298.291L95.2874 316.327L86.3947 310.715C84.1836 309.319 82.9015 307.974 82.5484 306.68C82.1952 305.385 82.6524 303.734 83.92 301.725C85.0708 299.902 86.0689 298.789 86.9142 298.386C87.7508 297.978 88.8971 298.055 90.3533 298.616L90.4283 298.497C88.5065 297.112 88.2434 295.314 89.6388 293.103L92.149 289.126L95.5712 291.286L93.4947 294.576C92.3217 296.434 92.6513 297.942 94.4836 299.098L99.4122 302.209L103.248 296.131L106.671 298.291ZM97.5942 305.089L92.6788 301.987C91.5072 301.248 90.6014 300.966 89.9613 301.14C89.3068 301.319 88.5821 302.038 87.7871 303.297C86.9754 304.583 86.6201 305.517 86.7214 306.098C86.8082 306.683 87.4111 307.328 88.5298 308.034L93.6831 311.287L97.5942 305.089Z" fill="white"></path>
  <path d="M71.1316 299.744L84.5418 283.159L87.6886 285.704L74.2785 302.288L71.1316 299.744Z" fill="white"></path>
  <path d="M63.8467 288.936L67.7499 285.061L60.7045 277.964L62.8225 275.862L69.8678 282.958L74.148 278.709L66.6513 271.158L69.0686 268.758L79.4165 279.181L64.2805 294.208L53.9987 283.851L56.416 281.451L63.8467 288.936Z" fill="white"></path>
  <path d="M43.9214 261.324L46.2817 264.496C46.1353 264.63 46.0246 264.726 45.9494 264.782C45.0444 265.572 44.6013 266.233 44.6202 266.764C44.6308 267.302 45.1212 268.223 46.0914 269.526C47.2358 271.064 48.1273 271.965 48.7659 272.23C49.3983 272.486 50.1699 272.275 51.0807 271.597C52.1587 270.795 52.6632 270.121 52.5944 269.575C52.5256 269.029 51.7473 267.634 50.2597 265.391C48.5048 262.737 47.643 260.82 47.6744 259.641C47.6996 258.454 48.6355 257.173 50.4822 255.798C52.7551 254.107 54.5523 253.451 55.8738 253.83C57.187 254.217 58.9569 255.905 61.1835 258.897C63.1862 261.587 64.1912 263.618 64.1987 264.989C64.2 266.352 63.2063 267.773 61.2175 269.253L60.6001 269.732L58.2492 266.574L58.6033 266.291C59.7982 265.401 60.3739 264.648 60.3303 264.031C60.2868 263.414 59.5715 262.174 58.1845 260.311C57.1024 258.857 56.2574 258.044 55.6497 257.873C55.042 257.702 54.1783 258.034 53.0585 258.867C52.2313 259.483 51.799 260.045 51.7617 260.553C51.7099 261.059 52.031 261.839 52.7251 262.894L53.9463 264.77C55.8027 267.596 56.7141 269.606 56.6806 270.799C56.647 271.993 55.6526 273.317 53.6973 274.773C51.7002 276.259 50.0357 276.797 48.7038 276.386C47.3574 275.972 45.6736 274.408 43.6522 271.692C41.7366 269.119 40.7511 267.158 40.6956 265.809C40.6401 264.461 41.4981 263.128 43.2696 261.809L43.9214 261.324Z" fill="white"></path>
  <path d="M29.3473 241.393L34.6004 239.055L30.7117 230.319L33.8236 228.934L37.7123 237.67L45.7204 234.105L47.3661 237.802L27.8811 246.476L22.137 233.571L25.2489 232.186L29.3473 241.393Z" fill="white"></path>
  <path d="M39.8592 220.832L19.3165 226.566L16.4891 216.438C15.7861 213.92 15.738 212.062 16.3448 210.865C16.9517 209.669 18.3988 208.751 20.6864 208.112C22.7632 207.533 24.2501 207.377 25.1471 207.646C26.0412 207.904 26.8396 208.731 27.5423 210.124L27.6777 210.086C27.1824 207.77 28.1939 206.26 30.7122 205.557L35.2422 204.292L36.3303 208.19L32.5829 209.236C30.4659 209.827 29.6987 211.166 30.2813 213.253L31.8483 218.867L38.7711 216.934L39.8592 220.832ZM28.5675 219.782L27.0047 214.184C26.6322 212.85 26.1499 212.032 25.5579 211.733C24.9531 211.426 23.9333 211.472 22.4986 211.873C21.0338 212.282 20.1439 212.736 19.8289 213.235C19.5011 213.726 19.5151 214.609 19.8708 215.883L21.5092 221.753L28.5675 219.782Z" fill="white"></path>
  <path d="M11.6125 192.631C11.1802 188.78 11.5437 186.229 12.703 184.977C13.8519 183.726 16.6468 182.852 21.0877 182.353C25.9426 181.808 29.0642 182.024 30.4526 183C31.8399 183.966 32.7735 186.587 33.2534 190.862C33.6856 194.713 33.344 197.272 32.2285 198.54C31.1026 199.809 28.4175 200.681 24.1734 201.158C19.1217 201.725 15.8868 201.527 14.4685 200.565C13.0502 199.602 12.0982 196.958 11.6125 192.631ZM15.0945 192.554C15.3977 195.256 15.9217 196.796 16.6664 197.174C17.4111 197.551 19.8382 197.509 23.9479 197.048C26.9912 196.706 28.7939 196.237 29.3557 195.639C29.9164 195.031 30.0503 193.423 29.7575 190.814C29.4774 188.319 28.9627 186.862 28.2134 186.443C27.4537 186.026 25.3037 186.015 21.7635 186.413C18.2128 186.811 16.1434 187.285 15.555 187.833C14.9551 188.372 14.8016 189.946 15.0945 192.554Z" fill="white"></path>
  <path d="M11.8671 150.142L33.138 151.704L32.8417 155.74L21.2479 154.889C20.3233 154.821 19.2759 154.718 18.1058 154.58L16.5221 154.385L14.9539 154.191L14.9447 154.316L16.3897 154.908L17.8357 155.484C19.1335 156.018 20.0904 156.428 20.7066 156.713L32.3623 162.269L32.0922 165.947L19.8401 169.794C19.1665 170.006 18.1596 170.277 16.8194 170.607L15.3035 170.981L13.8032 171.356L13.7941 171.481L15.3425 171.516L16.9065 171.553C18.1162 171.579 19.1522 171.624 20.0144 171.687L31.6082 172.538L31.3119 176.574L10.041 175.013L10.5239 168.437L20.6515 165.357C21.3563 165.148 22.3632 164.877 23.6723 164.545L25.187 164.186L26.6872 163.811L26.6975 163.671L25.2659 163.111L23.8354 162.536C22.6274 162.061 21.6753 161.657 20.9791 161.324L11.374 156.858L11.8671 150.142Z" fill="white"></path>
  <path d="M37.1107 121.726L34.04 130.401L37.456 133.019L36.0275 137.055L18.2885 123.252L20.3166 117.522L42.8258 117.848L41.4234 121.81L37.1107 121.726ZM33.9846 121.614L22.2814 121.383L31.5447 128.507L33.9846 121.614Z" fill="white"></path>
  <path d="M30.4874 102.237L35.5726 104.921L40.036 96.4641L43.0484 98.054L38.5851 106.511L46.3373 110.602L44.4484 114.181L25.5861 104.226L32.179 91.7343L35.1914 93.3242L30.4874 102.237Z" fill="white"></path>
  <path d="M52.9172 98.0925L35.6695 85.5462L41.8553 77.0425C43.3934 74.9281 44.8199 73.7374 46.1349 73.4702C47.4499 73.2031 49.0677 73.768 50.9883 75.1651C52.732 76.4335 53.7769 77.5027 54.123 78.3728C54.4752 79.2344 54.323 80.3732 53.6666 81.7892L53.7803 81.8719C55.2892 80.0455 57.1008 79.9013 59.2152 81.4394L63.0185 84.206L60.6379 87.4786L57.4917 85.1899C55.7142 83.897 54.1883 84.1266 52.9137 85.8788L49.4853 90.5918L55.2977 94.8199L52.9172 98.0925ZM46.7308 88.5881L50.15 83.8877C50.9649 82.7673 51.3062 81.882 51.1738 81.2318C51.0391 80.567 50.3694 79.7965 49.1648 78.9203C47.9349 78.0256 47.0267 77.6097 46.44 77.6724C45.8511 77.7206 45.1675 78.2796 44.3893 79.3495L40.8047 84.2773L46.7308 88.5881Z" fill="white"></path>
  <path d="M54.1858 62.0836L69.805 76.607L67.0493 79.5706L51.4301 65.0472L54.1858 62.0836Z" fill="white"></path>
  <path d="M78.9971 57.4907L82.0804 54.8455L82.5585 55.4029C84.4916 57.6561 85.3318 59.4674 85.0794 60.8369C84.8201 62.1985 83.2832 64.0866 80.4687 66.5012C77.2747 69.2413 74.8624 70.405 73.2319 69.9922C71.6013 69.5794 68.8395 67.104 64.9463 62.566C62.6538 59.8938 61.6461 57.7114 61.9233 56.0187C62.1937 54.3182 63.9141 52.108 67.0843 49.3882C69.3929 47.4077 71.2329 46.433 72.6046 46.464C73.9695 46.4871 75.5336 47.5265 77.2971 49.582L77.6243 49.9395L74.541 52.5847L74.1849 52.1696C73.2761 51.1102 72.4946 50.6072 71.8404 50.6606C71.1874 50.6993 70.1493 51.3291 68.7263 52.5499C66.8209 54.1845 65.8747 55.4012 65.8874 56.2C65.9081 56.992 66.9053 58.5384 68.8791 60.839C71.5378 63.9381 73.2814 65.6265 74.1097 65.904C74.9459 66.1748 76.3048 65.5031 78.1864 63.8888C79.7122 62.5798 80.5648 61.5739 80.7442 60.871C80.9314 60.1614 80.5638 59.269 79.6414 58.1938L78.9971 57.4907Z" fill="white"></path>
  <path d="M98.8832 47.8029L91.0646 52.6575L92.0957 56.836L88.4585 59.0943L83.2347 37.2329L88.3984 34.0267L105.768 48.3466L102.198 50.5637L98.8832 47.8029ZM96.5125 45.762L87.5197 38.2691L90.3001 49.6193L96.5125 45.762Z" fill="white"></path>
  <path d="M122.441 22.0179L128.096 38.7935L124.261 40.0862L118.606 23.3106L112.773 25.277L111.615 21.842L127.324 16.5464L128.482 19.9815L122.441 22.0179Z" fill="white"></path>
  <path d="M143.151 12.6385C146.965 11.9562 149.535 12.1527 150.859 13.2279C152.182 14.2929 153.237 17.0248 154.024 21.4238C154.884 26.2329 154.872 29.3619 153.989 30.811C153.115 32.2582 150.561 33.3606 146.326 34.1181C142.512 34.8004 139.936 34.6263 138.598 33.5957C137.258 32.5549 136.212 29.9325 135.46 25.7284C134.565 20.7244 134.552 17.4835 135.42 16.0055C136.288 14.5275 138.865 13.4052 143.151 12.6385ZM143.454 16.1081C140.778 16.5868 139.275 17.21 138.947 17.9777C138.619 18.7454 138.819 21.1647 139.547 25.2355C140.086 28.2501 140.672 30.0183 141.305 30.54C141.948 31.0599 143.562 31.0887 146.146 30.6265C148.617 30.1845 150.037 29.5759 150.407 28.8009C150.774 28.0156 150.644 25.8695 150.017 22.3627C149.388 18.8456 148.781 16.8113 148.195 16.26C147.618 15.6965 146.038 15.6459 143.454 16.1081Z" fill="white"></path>
  <path d="M182.166 13.8377L181.21 31.515L177.169 31.2965L178.125 13.6192L171.978 13.2868L172.174 9.66705L188.728 10.5622L188.532 14.1819L182.166 13.8377Z" fill="white"></path>
  <path d="M213.945 14.8688L209.55 35.7391L205.59 34.9051L207.49 25.8842L197.705 23.8234L195.805 32.8443L191.845 32.0103L196.24 11.14L200.2 11.974L198.406 20.4903L208.192 22.5511L209.985 14.0348L213.945 14.8688Z" fill="white"></path>
  <path d="M225.222 21.8176L223.27 26.9598L232.619 30.5079L231.56 33.2981L222.211 29.75L220.071 35.3888L230.019 39.1643L228.811 42.3489L215.079 37.1375L222.647 17.1971L236.291 22.3752L235.082 25.5598L225.222 21.8176Z" fill="white"></path>
  <path d="M281.048 49.6019L263.839 63.4319L259.012 59.894L263.084 49.3175C263.451 48.3592 263.977 47.1044 264.662 45.5531L265.198 44.319L265.085 44.2359L264.048 45.1223L263.032 46.0053C262.332 46.5901 261.62 47.1657 260.895 47.732L251.98 54.7394L247.204 51.2384L255.352 30.7667L258.679 33.2054L254.243 44.464C253.951 45.1798 253.527 46.1543 252.972 47.3875L252.313 48.8417L251.641 50.2866L251.754 50.3698C252.295 49.9138 252.704 49.5677 252.981 49.3313L254.198 48.3054C254.838 47.7671 255.673 47.0944 256.704 46.2872L266.278 38.7756L270.109 41.5838L265.765 52.9289C265.392 53.8956 264.993 54.8885 264.569 55.9078L263.944 57.3679L263.323 58.8498L263.424 58.9237L264.625 57.8667L265.813 56.8005C266.777 55.9441 267.59 55.2487 268.253 54.7143L277.708 47.154L281.048 49.6019Z" fill="white"></path>
  <path d="M293.081 61.7788C295.699 64.6357 296.908 66.9113 296.709 68.6057C296.518 70.2931 294.775 72.6463 291.48 75.6655C287.878 78.9661 285.229 80.631 283.532 80.6602C281.842 80.697 279.543 79.1296 276.637 75.9578C274.019 73.101 272.787 70.8317 272.942 69.1501C273.104 67.4615 274.759 65.1744 277.908 62.289C281.656 58.8546 284.386 57.1085 286.099 57.0505C287.812 56.9926 290.139 58.5686 293.081 61.7788ZM290.313 63.8919C288.476 61.8875 287.145 60.9521 286.321 61.0857C285.497 61.2193 283.56 62.6831 280.511 65.477C278.254 67.5461 277.074 68.9876 276.972 69.8015C276.877 70.6231 277.716 72.0016 279.49 73.9369C281.186 75.7877 282.46 76.6617 283.313 76.5588C284.173 76.4488 285.916 75.1904 288.542 72.7836C291.176 70.3697 292.57 68.7679 292.722 67.9783C292.889 67.1894 292.086 65.8272 290.313 63.8919Z" fill="white"></path>
  <path d="M286.194 86.3214L303.976 74.5441L309.782 83.3111C311.226 85.491 311.843 87.2436 311.634 88.5691C311.425 89.8945 310.331 91.213 308.351 92.5244C306.553 93.7151 305.186 94.3206 304.25 94.3409C303.319 94.3699 302.306 93.8295 301.208 92.7196L301.091 92.7973C302.275 94.8492 301.777 96.5971 299.597 98.0408L295.676 100.638L293.442 97.2639L296.685 95.1155C298.518 93.9019 298.836 92.3918 297.639 90.5854L294.421 85.7265L288.429 89.6954L286.194 86.3214ZM297.261 83.8455L300.471 88.6915C301.236 89.8465 301.946 90.4756 302.601 90.5787C303.271 90.6847 304.227 90.3265 305.469 89.5039C306.737 88.6641 307.444 87.9584 307.59 87.3868C307.751 86.8182 307.466 85.9824 306.735 84.8794L303.371 79.799L297.261 83.8455Z" fill="white"></path>
  <path d="M319.302 99.6175L303.294 107.176L307.563 116.219L304.285 117.766L298.288 105.064L317.574 95.9581L319.302 99.6175Z" fill="white"></path>
  <path d="M306.304 121.984L326.734 115.862L329.744 125.905C330.599 128.759 330.574 130.941 329.667 132.453C328.764 133.974 326.75 135.202 323.627 136.138C318.528 137.666 315.113 138.19 313.381 137.708C311.659 137.224 310.315 135.37 309.349 132.147L306.304 121.984ZM310.728 124.883L312.383 130.406C312.94 132.262 313.723 133.332 314.732 133.617C315.755 133.908 317.723 133.618 320.637 132.745C323.65 131.842 325.493 131.023 326.164 130.289C326.836 129.555 326.901 128.285 326.36 126.479L324.633 120.716L310.728 124.883Z" fill="white"></path>
</svg>
