<svg width="1440" height="1180" viewBox="0 0 1440 1180" fill="none" xmlns="http://www.w3.org/2000/svg">
<g clip-path="url(#clip0_1672_2798)">
<path opacity="0.17" d="M200.266 1315.6L200.393 1315.38L200.179 1315.26L200.051 1315.47L200.266 1315.6ZM-59.1876 1224.72L-59.3635 1224.54L-59.4381 1224.61L-59.4376 1224.72L-59.1876 1224.72ZM-58.8581 1224.39L-59.0346 1224.21L-59.0346 1224.21L-58.8581 1224.39ZM240.37 926.166L240.546 925.989L240.37 925.813L240.193 925.989L240.37 926.166ZM539.598 1224.39L539.422 1224.57L539.422 1224.57L539.598 1224.39ZM539.737 1224.53L539.561 1224.71L539.561 1224.71L539.737 1224.53ZM539.926 1224.72L540.176 1224.72L540.176 1224.61L540.102 1224.54L539.926 1224.72ZM484.424 1339.76L484.267 1339.56L484.267 1339.56L484.424 1339.76ZM240.869 930.533H241.119V930.283H240.869V930.533ZM239.869 930.533V930.283H239.619V930.533H239.869ZM485.052 1340.54L485.208 1340.73L485.208 1340.73L485.052 1340.54ZM540.918 1225.69L541.093 1225.51L540.675 1225.11L540.668 1225.69L540.918 1225.69ZM752.429 1224.39L752.253 1224.21L752.253 1224.21L752.429 1224.39ZM789.736 1105.46L789.979 1105.4L789.916 1105.16L789.675 1105.22L789.736 1105.46ZM788.766 1105.71L788.704 1105.47L788.462 1105.53L788.524 1105.77L788.766 1105.71ZM751.721 1223.69L751.898 1223.86L751.898 1223.86L751.721 1223.69ZM540.927 1224.3L540.677 1224.3L540.677 1224.41L540.752 1224.48L540.927 1224.3ZM540.927 1224.01L541.177 1224.01V1224.01H540.927ZM540.927 802.891L541.104 802.714L540.677 802.289V802.891H540.927ZM751.721 1012.98L751.898 1012.8L751.898 1012.8L751.721 1012.98ZM964.553 1012.98L964.729 1013.16L964.729 1013.16L964.553 1012.98ZM1007.8 922.701L1007.55 922.675L1007.55 922.675L1007.8 922.701ZM966.023 802.346L966.021 802.096L965.433 802.1L965.844 802.52L966.023 802.346ZM1057.66 540.889L1057.79 540.674L1057.57 540.547L1057.44 540.762L1057.66 540.889ZM1057.15 541.75L1056.93 541.622L1056.81 541.837L1057.02 541.965L1057.15 541.75ZM965.04 801.349L964.863 801.525L964.936 801.599L965.04 801.599L965.04 801.349ZM964.553 800.861L964.729 800.684L964.729 800.684L964.553 800.861ZM665.325 502.636L665.148 502.459L664.97 502.636L665.148 502.813L665.325 502.636ZM963.445 205.515V205.265H963.341L963.268 205.338L963.445 205.515ZM1081.45 260.381L1081.25 260.54L1081.25 260.54L1081.45 260.381ZM669.612 501.123V500.873H669.362V501.123H669.612ZM669.612 502.123H669.362V502.373H669.612V502.123ZM1082.22 259.747L1082.03 259.906L1082.03 259.906L1082.22 259.747ZM964.448 204.515L964.271 204.338L963.843 204.765H964.448V204.515ZM964.552 204.411L964.729 204.588L964.729 204.588L964.552 204.411ZM964.552 -7.70712L964.376 -7.53005L964.376 -7.53005L964.552 -7.70712ZM845.221 -44.8892L845.159 -45.1314L844.917 -45.0695L844.979 -44.827L845.221 -44.8892ZM845.469 -43.922L845.227 -43.8598L845.289 -43.6181L845.531 -43.6798L845.469 -43.922ZM963.844 -7.00122L964.021 -7.17829L964.021 -7.17829L963.844 -7.00122ZM963.844 203.705L963.668 203.528L963.668 203.528L963.844 203.705ZM963.031 204.515V204.765H963.135L963.208 204.692L963.031 204.515ZM540.927 204.515H540.677V204.765H540.927V204.515ZM540.927 203.795L540.751 203.617L540.677 203.691V203.795H540.927ZM752.43 -6.99869L752.253 -7.17576L752.253 -7.17576L752.43 -6.99869ZM752.43 -219.117L752.606 -219.294L752.606 -219.294L752.43 -219.117ZM661.848 -262.22L661.874 -262.469L661.874 -262.469L661.848 -262.22ZM540.893 -220.392L540.643 -220.386L540.655 -219.811L541.067 -220.212L540.893 -220.392ZM279.613 -309.247L279.398 -309.375L279.271 -309.16L279.486 -309.032L279.613 -309.247ZM280.473 -308.736L280.345 -308.521L280.56 -308.393L280.688 -308.608L280.473 -308.736ZM539.91 -219.427L540.086 -219.249L540.162 -219.324L540.16 -219.43L539.91 -219.427ZM539.598 -219.117L539.422 -219.294L539.422 -219.294L539.598 -219.117ZM240.869 78.6113H240.619V79.2134L241.046 78.7883L240.869 78.6113ZM-4.31323 -333.674L-4.47012 -333.868L-4.47012 -333.868L-4.31323 -333.674ZM-60.1545 -220.396L-60.3288 -220.217L-59.9168 -219.816L-59.9045 -220.391L-60.1545 -220.396ZM-271.689 -219.119L-271.866 -219.296L-271.866 -219.296L-271.689 -219.119ZM-308.996 -100.188L-309.238 -100.126L-309.176 -99.8838L-308.934 -99.9456L-308.996 -100.188ZM-308.026 -100.435L-307.964 -100.193L-307.721 -100.255L-307.784 -100.498L-308.026 -100.435ZM-270.981 -218.413L-271.157 -218.59L-271.157 -218.59L-270.981 -218.413ZM-60.1777 -219.019L-59.9277 -219.016L-59.9264 -219.123L-60.0022 -219.197L-60.1777 -219.019ZM-60.1892 202.379L-60.3657 202.556L-59.9392 202.981V202.379H-60.1892ZM-270.981 -7.70654L-271.158 -7.52947L-271.158 -7.52947L-270.981 -7.70654ZM-483.812 -7.70651L-483.636 -7.52944L-483.636 -7.52944L-483.812 -7.70651ZM-527.061 82.5715L-527.31 82.5452L-527.31 82.5452L-527.061 82.5715ZM-483.813 204.411L-483.989 204.588L-483.989 204.588L-483.813 204.411ZM-483.709 204.515V204.765H-483.104L-483.532 204.338L-483.709 204.515ZM-576.918 462.837L-577.044 463.053L-576.828 463.179L-576.702 462.963L-576.918 462.837ZM-576.413 461.974L-576.197 462.1L-576.071 461.884L-576.287 461.758L-576.413 461.974ZM-482.705 205.515L-482.529 205.338L-482.602 205.265H-482.705V205.515ZM-186.103 501.123V501.373H-185.498L-185.926 500.946L-186.103 501.123ZM-601.484 746.443L-601.678 746.6L-601.678 746.6L-601.484 746.443ZM-485.28 802.346L-485.101 802.52L-484.69 802.1L-485.278 802.096L-485.28 802.346ZM-483.812 1012.98L-483.989 1013.16L-483.989 1013.16L-483.812 1012.98ZM-364.481 1050.16L-364.419 1050.41L-364.176 1050.34L-364.239 1050.1L-364.481 1050.16ZM-364.729 1049.2L-364.487 1049.13L-364.549 1048.89L-364.791 1048.95L-364.729 1049.2ZM-483.104 1012.28L-483.28 1012.45L-483.28 1012.45L-483.104 1012.28ZM-483.881 802.349V802.099H-483.985L-484.058 802.173L-483.881 802.349ZM-61.0596 802.349L-60.8831 802.526L-60.4546 802.099H-61.0596V802.349ZM-271.689 1012.27L-271.513 1012.45L-271.513 1012.45L-271.689 1012.27ZM-271.689 1224.39L-271.866 1224.57L-271.866 1224.57L-271.689 1224.39ZM-181.108 1267.49L-181.134 1267.74L-181.134 1267.74L-181.108 1267.49ZM-60.1799 1225.69L-59.9299 1225.69L-59.9363 1225.11L-60.3542 1225.51L-60.1799 1225.69ZM201.125 1316.11L201.34 1316.24L201.468 1316.02L201.253 1315.89L201.125 1316.11ZM-60.1892 801.349V801.599H-59.9392V801.349H-60.1892ZM-482.883 801.349L-483.059 801.172L-483.488 801.599H-482.883V801.349ZM-60.1892 626.615H-59.9392V626.511L-60.0127 626.438L-60.1892 626.615ZM-183.875 503.344L-183.699 503.166L-183.875 502.991L-184.051 503.166L-183.875 503.344ZM-182.432 502.123V502.373H-182.182V502.123H-182.432ZM-182.651 502.123V501.873H-182.754L-182.827 501.946L-182.651 502.123ZM-182.432 501.905L-182.609 501.728L-182.682 501.802V501.905H-182.432ZM-60.1892 380.072H-59.9392V379.47L-60.3657 379.895L-60.1892 380.072ZM-60.1892 625.203L-60.3657 625.38L-59.9392 625.805V625.203H-60.1892ZM-183.167 502.638L-183.343 502.46L-183.521 502.638L-183.343 502.815L-183.167 502.638ZM-183.064 501.123V501.373H-182.961L-182.888 501.3L-183.064 501.123ZM-60.1892 378.66L-60.0127 378.838L-59.9392 378.764V378.66H-60.1892ZM-184.686 501.123L-184.862 501.3L-184.789 501.373H-184.686V501.123ZM-481.289 205.515V205.265H-481.894L-481.465 205.692L-481.289 205.515ZM-60.1892 205.515H-59.9392V205.265H-60.1892V205.515ZM-59.1892 379.076L-59.3657 378.899L-59.4392 378.972V379.076H-59.1892ZM-59.1892 626.199H-59.4392V626.303L-59.3657 626.377L-59.1892 626.199ZM28.248 713.344L28.0716 713.521L28.248 713.697L28.4245 713.521L28.248 713.344ZM239.663 502.637L239.84 502.814L240.017 502.637L239.84 502.46L239.663 502.637ZM28.2482 291.931L28.4246 291.754L28.2482 291.578L28.0717 291.754L28.2482 291.931ZM-59.1892 377.664H-59.4392V378.266L-59.0127 377.841L-59.1892 377.664ZM27.5399 291.225L27.7163 291.403L27.894 291.225L27.7163 291.048L27.5399 291.225ZM-59.1892 205.515V205.265H-59.4392V205.515H-59.1892ZM-58.4591 205.515L-58.2826 205.338L-58.3558 205.265H-58.4591V205.515ZM240.371 501.931L240.195 502.108L240.371 502.284L240.548 502.108L240.371 501.931ZM28.9564 291.225L28.7799 291.048L28.6023 291.225L28.7799 291.403L28.9564 291.225ZM451.786 291.225L451.963 291.402L452.141 291.225L451.963 291.048L451.786 291.225ZM365.788 205.515L365.964 205.338L365.891 205.265H365.788V205.515ZM114.955 205.515V205.265H114.852L114.779 205.338L114.955 205.515ZM28.2481 290.52L28.0716 290.697L28.2481 290.873L28.4246 290.697L28.2481 290.52ZM113.539 205.515L113.715 205.692L114.144 205.265H113.539V205.515ZM-57.0425 205.515V205.265H-57.6475L-57.219 205.692L-57.0425 205.515ZM114.542 204.515V204.765H114.645L114.718 204.692L114.542 204.515ZM-58.0459 204.515L-58.2224 204.692L-58.1492 204.765H-58.0459V204.515ZM-59.1892 203.375H-59.4392V203.479L-59.3657 203.553L-59.1892 203.375ZM-59.1866 -218.035L-59.0101 -218.212L-59.433 -218.634L-59.4366 -218.037L-59.1866 -218.035ZM239.663 79.8131L239.84 79.9902L240.017 79.8131L239.84 79.636L239.663 79.8131ZM239.869 81.0197H240.119V80.4176L239.693 80.8427L239.869 81.0197ZM115.959 204.515L115.782 204.338L115.354 204.765H115.959V204.515ZM239.869 82.1243H239.619V82.3743H239.869V82.1243ZM240.869 82.1243V82.3743H241.119V82.1243H240.869ZM240.869 81.0149L241.046 80.8378L240.619 80.4127V81.0149H240.869ZM364.785 204.515V204.765H365.39L364.961 204.338L364.785 204.515ZM241.08 79.813L240.903 79.636L240.726 79.813L240.903 79.9901L241.08 79.813ZM366.201 204.515L366.025 204.692L366.098 204.765H366.201V204.515ZM538.788 204.515V204.765H538.891L538.965 204.692L538.788 204.515ZM539.927 203.379L540.104 203.556L540.177 203.483V203.379H539.927ZM539.925 -218.03L540.175 -218.032L540.171 -218.629L539.748 -218.207L539.925 -218.03ZM540.916 -219.015L540.741 -219.193L540.665 -219.118L540.666 -219.012L540.916 -219.015ZM540.927 202.383H540.677V202.985L541.104 202.56L540.927 202.383ZM751.721 -7.70459L751.898 -7.52752L751.898 -7.52752L751.721 -7.70459ZM751.721 -218.411L751.545 -218.234L751.545 -218.234L751.721 -218.411ZM661.743 -261.227L661.717 -260.979L661.717 -260.979L661.743 -261.227ZM537.785 205.515L537.961 205.692L538.39 205.265H537.785V205.515ZM367.205 205.515V205.265H366.6L367.028 205.692L367.205 205.515ZM452.495 290.519L452.318 290.696L452.495 290.872L452.671 290.696L452.495 290.519ZM452.495 291.931L452.671 291.754L452.495 291.578L452.318 291.754L452.495 291.931ZM241.08 502.637L240.903 502.46L240.726 502.637L240.903 502.814L241.08 502.637ZM452.493 713.342L452.317 713.519L452.493 713.695L452.67 713.519L452.493 713.342ZM539.927 626.201L540.104 626.378L540.177 626.304V626.201H539.927ZM539.927 379.071H540.177V378.967L540.104 378.894L539.927 379.071ZM451.785 714.048L451.961 714.225L452.139 714.048L451.961 713.871L451.785 714.048ZM240.371 503.343L240.548 503.166L240.371 502.99L240.195 503.166L240.371 503.343ZM364.19 801.349V801.599H364.293L364.366 801.526L364.19 801.349ZM116.549 801.349L116.373 801.526L116.446 801.599H116.549V801.349ZM28.9564 714.05L28.7799 713.872L28.6022 714.05L28.7799 714.227L28.9564 714.05ZM539.201 205.515V205.265H539.098L539.025 205.338L539.201 205.515ZM453.203 291.225L453.026 291.048L452.849 291.225L453.026 291.402L453.203 291.225ZM539.927 205.515H540.177V205.265H539.927V205.515ZM539.927 377.659L539.751 377.836L540.177 378.261V377.659H539.927ZM-483.812 800.863L-483.989 800.686L-483.989 800.686L-483.812 800.863ZM-184.583 502.638L-184.407 502.815L-184.229 502.638L-184.407 502.46L-184.583 502.638ZM-484.297 801.349V801.599H-484.193L-484.12 801.525L-484.297 801.349ZM-600.706 745.813L-600.512 745.656L-600.512 745.656L-600.706 745.813ZM-185.099 502.123L-184.923 501.946L-184.996 501.873H-185.099V502.123ZM-59.1892 1223.31H-59.4392V1223.91L-59.0127 1223.49L-59.1892 1223.31ZM239.661 925.46L239.838 925.637L240.016 925.46L239.838 925.283L239.661 925.46ZM-59.1892 802.349V802.099H-59.4392V802.349H-59.1892ZM116.136 802.349L116.313 802.172L116.239 802.099H116.136V802.349ZM-60.1889 1224.3L-60.0134 1224.48L-59.9388 1224.41L-59.9389 1224.3L-60.1889 1224.3ZM-60.1892 1224.01H-60.4392L-60.4392 1224.01L-60.1892 1224.01ZM-181.003 1266.5L-180.977 1266.25L-180.977 1266.25L-181.003 1266.5ZM-270.981 1223.68L-270.805 1223.51L-270.805 1223.51L-270.981 1223.68ZM-270.981 1012.98L-270.805 1013.16L-270.805 1013.16L-270.981 1012.98ZM-60.1892 802.893H-59.9392V802.291L-60.3657 802.716L-60.1892 802.893ZM115.133 801.349V801.599H115.738L115.309 801.172L115.133 801.349ZM28.2466 714.754L28.4231 714.577L28.2466 714.401L28.0701 714.577L28.2466 714.754ZM-58.6396 801.349L-58.8161 801.172L-59.2446 801.599H-58.6396V801.349ZM27.5383 714.048L27.7147 714.225L27.8924 714.048L27.7147 713.871L27.5383 714.048ZM-59.1892 627.611L-59.0127 627.434L-59.4392 627.009V627.611H-59.1892ZM-59.1892 800.485H-59.4392V801.087L-59.0127 800.662L-59.1892 800.485ZM240.37 924.754L240.193 924.931L240.37 925.107L240.546 924.931L240.37 924.754ZM117.553 802.349V802.099H116.948L117.376 802.526L117.553 802.349ZM363.187 802.349L363.363 802.526L363.792 802.099H363.187V802.349ZM241.078 925.46L240.901 925.283L240.724 925.46L240.901 925.637L241.078 925.46ZM539.927 1223.31L539.751 1223.48L540.177 1223.91V1223.31H539.927ZM364.603 802.349V802.099H364.5L364.427 802.172L364.603 802.349ZM539.927 802.349H540.177V802.099H539.927V802.349ZM365.607 801.349L365.43 801.172L365.002 801.599H365.607V801.349ZM539.38 801.349V801.599H539.985L539.556 801.172L539.38 801.349ZM452.493 714.754L452.67 714.576L452.493 714.401L452.317 714.576L452.493 714.754ZM453.202 714.048L453.025 713.871L452.847 714.048L453.025 714.225L453.202 714.048ZM539.927 800.483L539.751 800.66L540.177 801.085V800.483H539.927ZM539.927 627.612H540.177V627.01L539.751 627.435L539.927 627.612ZM540.927 626.616L540.751 626.439L540.677 626.512V626.616H540.927ZM540.927 801.349H540.677V801.599H540.927V801.349ZM664.616 503.342L664.793 503.164L664.616 502.989L664.44 503.164L664.616 503.342ZM963.626 801.349V801.599H964.231L963.802 801.172L963.626 801.349ZM664.616 501.93L664.44 502.107L664.616 502.283L664.793 502.107L664.616 501.93ZM962.028 205.515L962.204 205.692L962.633 205.265H962.028V205.515ZM540.927 378.656H540.677V378.759L540.751 378.833L540.927 378.656ZM540.927 205.515V205.265H540.677V205.515H540.927ZM663.908 502.636L664.084 502.813L664.262 502.636L664.084 502.459L663.908 502.636ZM540.927 625.204H540.677V625.806L541.104 625.381L540.927 625.204ZM540.927 380.067L541.104 379.89L540.677 379.465V380.067H540.927ZM-271.689 -7.00064L-271.513 -7.17771L-271.513 -7.17771L-271.689 -7.00064ZM-60.1892 203.791H-59.9392V203.687L-60.0127 203.614L-60.1892 203.791ZM-483.104 -7.00061L-483.281 -7.17768L-483.281 -7.17768L-483.104 -7.00061ZM-526.065 82.6759L-525.816 82.7022L-525.816 82.7022L-526.065 82.6759ZM-483.104 203.705L-482.928 203.528L-482.928 203.528L-483.104 203.705ZM-482.292 204.515L-482.468 204.692L-482.395 204.765H-482.292V204.515ZM-60.1892 204.515V204.765H-59.9392V204.515H-60.1892ZM541.8 802.349V802.099H541.195L541.623 802.526L541.8 802.349ZM752.43 1012.27L752.606 1012.1L752.606 1012.1L752.43 1012.27ZM964.624 802.349L964.801 802.173L964.728 802.099H964.624V802.349ZM1006.81 922.596L1006.56 922.57L1006.56 922.57L1006.81 922.596ZM963.844 1012.27L964.021 1012.45L964.021 1012.45L963.844 1012.27ZM239.869 78.6064L239.693 78.7835L240.119 79.2085V78.6064H239.869ZM-58.8577 -219.119L-58.6812 -219.296L-58.6812 -219.296L-58.8577 -219.119ZM-3.68567 -332.895L-3.52878 -332.7L-3.52878 -332.7L-3.68567 -332.895ZM-59.1719 -219.431L-59.4219 -219.435L-59.4235 -219.329L-59.3479 -219.254L-59.1719 -219.431ZM90.34 1373.11C141.027 1373.11 177.723 1353.98 200.48 1315.73L200.051 1315.47C177.397 1353.55 140.879 1372.61 90.34 1372.61V1373.11ZM-59.4376 1224.72C-59.0524 1306.74 7.85672 1373.11 90.34 1373.11V1372.61C8.12997 1372.61 -58.5537 1306.46 -58.9376 1224.72L-59.4376 1224.72ZM-59.0346 1224.21C-59.1441 1224.32 -59.2537 1224.43 -59.3635 1224.54L-59.0116 1224.9C-58.9015 1224.79 -58.7915 1224.68 -58.6816 1224.57L-59.0346 1224.21ZM240.193 925.989L-59.0346 1224.21L-58.6816 1224.57L240.546 926.343L240.193 925.989ZM539.775 1224.21L240.546 925.989L240.193 926.343L539.422 1224.57L539.775 1224.21ZM539.914 1224.35L539.774 1224.21L539.422 1224.57L539.561 1224.71L539.914 1224.35ZM540.102 1224.54L539.914 1224.35L539.561 1224.71L539.75 1224.89L540.102 1224.54ZM484.581 1339.95C518.324 1312.75 539.958 1271.25 540.176 1224.72L539.676 1224.72C539.458 1271.1 517.899 1312.45 484.267 1339.56L484.581 1339.95ZM390.398 1373.11C426.083 1373.11 458.852 1360.69 484.581 1339.95L484.267 1339.56C458.624 1360.23 425.965 1372.61 390.398 1372.61V1373.11ZM240.619 1224.01C240.619 1306.35 307.676 1373.11 390.398 1373.11V1372.61C307.95 1372.61 241.119 1306.08 241.119 1224.01H240.619ZM240.619 930.533V1224.01H241.119V930.533H240.619ZM239.869 930.783H240.869V930.283H239.869V930.783ZM240.119 1224.01V930.533H239.619V1224.01H240.119ZM390.398 1373.61C307.402 1373.61 240.119 1306.63 240.119 1224.01H239.619C239.619 1306.91 307.128 1374.11 390.398 1374.11V1373.61ZM484.895 1340.34C459.08 1361.15 426.201 1373.61 390.398 1373.61V1374.11C426.319 1374.11 459.308 1361.61 485.208 1340.73L484.895 1340.34ZM540.668 1225.69C540.156 1271.99 518.516 1313.24 484.895 1340.34L485.208 1340.73C518.941 1313.54 540.655 1272.15 541.168 1225.69L540.668 1225.69ZM752.253 1224.21C694.016 1282.26 599.865 1282.69 541.093 1225.51L540.744 1225.87C599.712 1283.24 694.175 1282.8 752.606 1224.57L752.253 1224.21ZM789.494 1105.52C800.62 1148.83 788.19 1188.4 752.253 1224.21L752.606 1224.57C788.648 1188.65 801.155 1148.9 789.979 1105.4L789.494 1105.52ZM788.828 1105.95L789.798 1105.7L789.675 1105.22L788.704 1105.47L788.828 1105.95ZM751.898 1223.86C787.73 1188.15 800.084 1148.75 789.008 1105.65L788.524 1105.77C799.549 1148.68 787.271 1187.9 751.545 1223.51L751.898 1223.86ZM540.752 1224.48C599.278 1282.14 693.626 1281.94 751.898 1223.86L751.545 1223.51C693.468 1281.39 599.434 1281.6 541.103 1224.12L540.752 1224.48ZM540.677 1224.01L540.677 1224.3L541.177 1224.3L541.177 1224.01L540.677 1224.01ZM540.677 802.891V1224.01H541.177V802.891H540.677ZM751.898 1012.8L541.104 802.714L540.751 803.069L751.545 1013.16L751.898 1012.8ZM964.376 1012.8C905.702 1071.28 810.572 1071.28 751.898 1012.8L751.545 1013.16C810.414 1071.83 905.86 1071.83 964.729 1013.16L964.376 1012.8ZM1007.55 922.675C1004.08 955.589 989.687 987.576 964.376 1012.8L964.729 1013.16C990.124 987.846 1004.56 955.752 1008.05 922.727L1007.55 922.675ZM965.844 802.52C998.161 835.62 1012.06 879.93 1007.55 922.675L1008.05 922.727C1012.58 879.841 998.627 835.381 966.201 802.171L965.844 802.52ZM1115.49 651.736C1115.49 734.451 1048.66 801.566 966.021 802.096L966.024 802.596C1048.94 802.065 1115.99 734.726 1115.99 651.736H1115.49ZM1057.53 541.104C1096.17 563.979 1115.49 600.873 1115.49 651.736H1115.99C1115.99 600.725 1096.6 563.652 1057.79 540.674L1057.53 541.104ZM1057.36 541.877L1057.87 541.016L1057.44 540.762L1056.93 541.622L1057.36 541.877ZM1114.99 651.736C1114.99 601.022 1095.75 564.305 1057.28 541.535L1057.02 541.965C1095.32 564.632 1114.49 601.17 1114.49 651.736H1114.99ZM965.04 801.599C1047.85 801.597 1114.99 734.502 1114.99 651.736H1114.49C1114.49 734.225 1047.58 801.097 965.04 801.099L965.04 801.599ZM964.376 801.038C964.539 801.2 964.701 801.363 964.863 801.525L965.218 801.173C965.055 801.01 964.892 800.847 964.729 800.684L964.376 801.038ZM665.148 502.813L964.376 801.038L964.729 800.684L665.501 502.459L665.148 502.813ZM963.268 205.338L665.148 502.459L665.501 502.813L963.621 205.692L963.268 205.338ZM965.035 205.265H963.445V205.765H965.035V205.265ZM1081.64 260.223C1054.15 226.698 1012.13 205.265 965.035 205.265V205.765C1011.97 205.765 1053.85 227.127 1081.25 260.54L1081.64 260.223ZM1114.99 353.319C1114.99 318.047 1102.5 285.656 1081.64 260.223L1081.25 260.54C1102.04 285.887 1114.49 318.167 1114.49 353.319H1114.99ZM965.035 501.373C1047.85 501.373 1114.99 435.084 1114.99 353.319H1114.49C1114.49 434.802 1047.58 500.873 965.035 500.873V501.373ZM669.612 501.373H965.035V500.873H669.612V501.373ZM669.862 502.123V501.123H669.362V502.123H669.862ZM965.035 501.873H669.612V502.373H965.035V501.873ZM1115.49 353.319C1115.49 435.366 1048.12 501.873 965.035 501.873V502.373C1048.39 502.373 1115.99 435.649 1115.99 353.319H1115.49ZM1082.03 259.906C1102.95 285.424 1115.49 317.927 1115.49 353.319H1115.99C1115.99 317.806 1103.41 285.193 1082.41 259.589L1082.03 259.906ZM965.035 204.765C1012.28 204.765 1054.44 226.269 1082.03 259.906L1082.41 259.589C1054.74 225.84 1012.44 204.265 965.035 204.265V204.765ZM964.448 204.765H965.035V204.265H964.448V204.765ZM964.376 204.234L964.271 204.338L964.624 204.692L964.729 204.588L964.376 204.234ZM964.376 -7.53005C1023.05 50.947 1023.05 145.757 964.376 204.234L964.729 204.588C1023.6 145.915 1023.6 50.7882 964.729 -7.8842L964.376 -7.53005ZM845.283 -44.6469C888.733 -55.7355 928.439 -43.3467 964.376 -7.53005L964.729 -7.8842C928.687 -43.8055 888.805 -56.2701 845.159 -45.1314L845.283 -44.6469ZM845.712 -43.9842L845.463 -44.9514L844.979 -44.827L845.227 -43.8598L845.712 -43.9842ZM964.021 -7.17829C928.189 -42.8902 888.659 -55.2023 845.408 -44.1643L845.531 -43.6798C888.587 -54.6678 927.941 -42.4314 963.668 -6.82415L964.021 -7.17829ZM964.021 203.882C1022.5 145.599 1022.5 51.1043 964.021 -7.17829L963.668 -6.82415C1021.95 51.2631 1021.95 145.441 963.668 203.528L964.021 203.882ZM963.208 204.692L964.021 203.882L963.668 203.528L962.855 204.338L963.208 204.692ZM540.927 204.765H963.031V204.265H540.927V204.765ZM540.677 203.795V204.515H541.177V203.795H540.677ZM752.253 -7.17576L540.751 203.617L541.104 203.972L752.606 -6.82161L752.253 -7.17576ZM752.253 -218.94C810.927 -160.462 810.927 -65.6528 752.253 -7.17576L752.606 -6.82161C811.476 -65.494 811.476 -160.621 752.606 -219.294L752.253 -218.94ZM661.822 -261.972C694.848 -258.509 726.943 -244.165 752.253 -218.94L752.606 -219.294C727.212 -244.603 695.009 -258.995 661.874 -262.469L661.822 -261.972ZM541.067 -220.212C574.299 -252.557 618.849 -266.476 661.822 -261.972L661.874 -262.469C618.76 -266.989 574.061 -253.023 540.718 -220.571L541.067 -220.212ZM390.398 -366.75C472.306 -366.75 538.911 -301.515 540.643 -220.386L541.143 -220.397C539.405 -301.799 472.577 -367.25 390.398 -367.25V-366.75ZM279.828 -309.119C302.69 -347.546 339.564 -366.75 390.398 -366.75V-367.25C339.417 -367.25 302.364 -347.976 279.398 -309.375L279.828 -309.119ZM280.601 -308.951L279.741 -309.462L279.486 -309.032L280.345 -308.521L280.601 -308.951ZM390.398 -366.25C339.712 -366.25 303.016 -347.115 280.258 -308.864L280.688 -308.608C303.341 -346.684 339.859 -365.75 390.398 -365.75V-366.25ZM540.16 -219.43C538.933 -300.724 472.354 -366.25 390.398 -366.25V-365.75C472.082 -365.75 538.438 -300.441 539.66 -219.423L540.16 -219.43ZM539.775 -218.94C539.879 -219.043 539.982 -219.146 540.086 -219.249L539.734 -219.604C539.63 -219.501 539.526 -219.397 539.422 -219.294L539.775 -218.94ZM241.046 78.7883L539.775 -218.94L539.422 -219.294L240.693 78.4342L241.046 78.7883ZM240.619 -217.146V78.6113H241.119V-217.146H240.619ZM90.34 -366.75C173.336 -366.75 240.619 -299.771 240.619 -217.146H241.119C241.119 -300.049 173.61 -367.25 90.34 -367.25V-366.75ZM-4.15635 -333.479C21.6585 -354.286 54.5375 -366.75 90.34 -366.75V-367.25C54.4195 -367.25 21.4306 -354.744 -4.47012 -333.868L-4.15635 -333.479ZM-59.9045 -220.391C-58.9283 -266.056 -37.3985 -306.685 -4.15635 -333.479L-4.47012 -333.868C-37.822 -306.986 -59.4249 -266.22 -60.4044 -220.402L-59.9045 -220.391ZM-271.513 -218.942C-213.268 -276.991 -119.099 -277.416 -60.3288 -220.217L-59.9801 -220.575C-118.946 -277.965 -213.427 -277.539 -271.866 -219.296L-271.513 -218.942ZM-308.754 -100.25C-319.88 -143.553 -307.45 -183.125 -271.513 -218.942L-271.866 -219.296C-307.908 -183.375 -320.415 -143.626 -309.238 -100.126L-308.754 -100.25ZM-308.088 -100.678L-309.058 -100.43L-308.934 -99.9456L-307.964 -100.193L-308.088 -100.678ZM-271.157 -218.59C-306.989 -182.878 -319.343 -143.481 -308.268 -100.373L-307.784 -100.498C-318.808 -143.408 -306.531 -182.629 -270.804 -218.236L-271.157 -218.59ZM-60.0022 -219.197C-118.528 -276.872 -212.883 -276.669 -271.157 -218.59L-270.804 -218.236C-212.724 -276.121 -118.684 -276.323 -60.3531 -218.841L-60.0022 -219.197ZM-59.9392 -217.146C-59.9392 -217.77 -59.9354 -218.394 -59.9277 -219.016L-60.4277 -219.022C-60.4354 -218.398 -60.4392 -217.772 -60.4392 -217.146H-59.9392ZM-59.9392 202.379V-217.146H-60.4392V202.379H-59.9392ZM-271.158 -7.52947L-60.3657 202.556L-60.0127 202.202L-270.805 -7.88362L-271.158 -7.52947ZM-483.636 -7.52944C-424.962 -66.007 -329.832 -66.0069 -271.158 -7.52947L-270.805 -7.88362C-329.674 -66.5556 -425.12 -66.5556 -483.989 -7.88359L-483.636 -7.52944ZM-526.812 82.5977C-523.339 49.6833 -508.946 17.6962 -483.636 -7.52944L-483.989 -7.88359C-509.383 17.4258 -523.824 49.5207 -527.31 82.5452L-526.812 82.5977ZM-483.636 204.234C-516.999 170.983 -531.391 125.984 -526.812 82.5977L-527.31 82.5452C-531.904 126.075 -517.464 171.226 -483.989 204.588L-483.636 204.234ZM-483.532 204.338L-483.636 204.234L-483.989 204.588L-483.885 204.692L-483.532 204.338ZM-484.298 204.765H-483.709V204.265H-484.298V204.765ZM-634.75 353.319C-634.75 271.272 -567.387 204.765 -484.298 204.765V204.265C-567.657 204.265 -635.25 270.99 -635.25 353.319H-634.75ZM-576.792 462.621C-615.435 440.023 -634.75 403.572 -634.75 353.319H-635.25C-635.25 403.723 -615.863 440.352 -577.044 463.053L-576.792 462.621ZM-576.629 461.848L-577.134 462.711L-576.702 462.963L-576.197 462.1L-576.629 461.848ZM-634.25 353.319C-634.25 403.42 -615.008 439.694 -576.539 462.19L-576.287 461.758C-614.581 439.364 -633.75 403.269 -633.75 353.319H-634.25ZM-484.298 205.265C-567.117 205.265 -634.25 271.554 -634.25 353.319H-633.75C-633.75 271.836 -566.847 205.765 -484.298 205.765V205.265ZM-482.705 205.265H-484.298V205.765H-482.705V205.265ZM-185.926 500.946L-482.529 205.338L-482.882 205.692L-186.279 501.3L-185.926 500.946ZM-484.297 501.373H-186.103V500.873H-484.297V501.373ZM-634.749 651.736C-634.749 568.693 -567.389 501.373 -484.297 501.373V500.873C-567.665 500.873 -635.249 568.417 -635.249 651.736H-634.749ZM-601.289 746.286C-622.214 720.456 -634.749 687.559 -634.749 651.736H-635.249C-635.249 687.678 -622.672 720.685 -601.678 746.6L-601.289 746.286ZM-485.278 802.096C-532.129 801.797 -573.898 780.096 -601.289 746.286L-601.678 746.6C-574.196 780.522 -532.288 802.296 -485.281 802.596L-485.278 802.096ZM-483.636 1012.8C-541.817 954.818 -542.305 861.106 -485.101 802.52L-485.458 802.171C-542.854 860.953 -542.364 954.978 -483.989 1013.16L-483.636 1012.8ZM-364.543 1049.92C-407.993 1061.01 -447.699 1048.62 -483.636 1012.8L-483.989 1013.16C-447.946 1049.08 -408.065 1061.54 -364.419 1050.41L-364.543 1049.92ZM-364.971 1049.26L-364.723 1050.23L-364.239 1050.1L-364.487 1049.13L-364.971 1049.26ZM-483.28 1012.45C-447.448 1048.16 -407.919 1060.48 -364.667 1049.44L-364.791 1048.95C-407.847 1059.94 -447.2 1047.71 -482.927 1012.1L-483.28 1012.45ZM-484.058 802.173C-541.758 860.516 -541.498 954.429 -483.28 1012.45L-482.927 1012.1C-540.95 954.27 -541.209 860.672 -483.703 802.525L-484.058 802.173ZM-61.0596 802.099H-483.881V802.599H-61.0596V802.099ZM-271.513 1012.45L-60.8831 802.526L-61.236 802.172L-271.866 1012.1L-271.513 1012.45ZM-271.513 1224.21C-330.187 1165.74 -330.187 1070.93 -271.513 1012.45L-271.866 1012.1C-330.736 1070.77 -330.736 1165.9 -271.866 1224.57L-271.513 1224.21ZM-181.082 1267.25C-214.107 1263.78 -246.202 1249.44 -271.513 1224.21L-271.866 1224.57C-246.471 1249.88 -214.269 1264.27 -181.134 1267.74L-181.082 1267.25ZM-60.3542 1225.51C-93.5827 1257.84 -138.12 1271.75 -181.082 1267.25L-181.134 1267.74C-138.031 1272.26 -93.345 1258.3 -60.0055 1225.87L-60.3542 1225.51ZM90.34 1373.61C7.90813 1373.61 -59.0241 1307.54 -59.9299 1225.69L-60.4299 1225.7C-59.521 1307.82 7.63594 1374.11 90.34 1374.11V1373.61ZM200.91 1315.98C178.048 1354.41 141.174 1373.61 90.34 1373.61V1374.11C141.321 1374.11 178.374 1354.84 201.34 1316.24L200.91 1315.98ZM200.138 1315.81L200.997 1316.32L201.253 1315.89L200.393 1315.38L200.138 1315.81ZM-60.1892 801.099H-482.883V801.599H-60.1892V801.099ZM-60.4392 626.615V801.349H-59.9392V626.615H-60.4392ZM-184.051 503.521L-60.3657 626.792L-60.0127 626.438L-183.699 503.166L-184.051 503.521ZM-184.051 503.166L-483.059 801.172L-482.706 801.526L-183.699 503.521L-184.051 503.166ZM-182.432 501.873H-182.651V502.373H-182.432V501.873ZM-182.682 501.905V502.123H-182.182V501.905H-182.682ZM-60.3657 379.895L-182.609 501.728L-182.256 502.083L-60.0127 380.249L-60.3657 379.895ZM-59.9392 625.203V380.072H-60.4392V625.203H-59.9392ZM-183.343 502.815L-60.3657 625.38L-60.0127 625.026L-182.99 502.46L-183.343 502.815ZM-182.827 501.946L-183.343 502.46L-182.99 502.815L-182.474 502.3L-182.827 501.946ZM-182.888 501.3L-60.0127 378.838L-60.3657 378.483L-183.241 500.946L-182.888 501.3ZM-184.686 501.373H-183.064V500.873H-184.686V501.373ZM-481.465 205.692L-184.862 501.3L-184.509 500.946L-481.112 205.338L-481.465 205.692ZM-60.1892 205.265H-481.289V205.765H-60.1892V205.265ZM-59.9392 378.66V205.515H-60.4392V378.66H-59.9392ZM-59.4392 379.076V626.199H-58.9392V379.076H-59.4392ZM-59.3657 626.377L28.0716 713.521L28.4245 713.167L-59.0127 626.022L-59.3657 626.377ZM28.4245 713.521L239.84 502.814L239.487 502.46L28.0716 713.167L28.4245 713.521ZM239.84 502.46L28.4246 291.754L28.0717 292.108L239.487 502.814L239.84 502.46ZM28.0717 291.754L-59.3657 378.899L-59.0127 379.253L28.4246 292.108L28.0717 291.754ZM-59.0127 377.841L27.7163 291.403L27.3634 291.048L-59.3657 377.487L-59.0127 377.841ZM-59.4392 205.515V377.664H-58.9392V205.515H-59.4392ZM-58.4591 205.265H-59.1892V205.765H-58.4591V205.265ZM27.7163 291.048L-58.2826 205.338L-58.6356 205.692L27.3634 291.403L27.7163 291.048ZM240.548 501.754L29.1329 291.048L28.7799 291.403L240.195 502.108L240.548 501.754ZM240.548 502.108L451.963 291.402L451.61 291.048L240.195 501.754L240.548 502.108ZM365.611 205.692L451.61 291.402L451.963 291.048L365.964 205.338L365.611 205.692ZM114.955 205.765H365.788V205.265H114.955V205.765ZM114.779 205.338L28.7799 291.048L29.1329 291.403L115.132 205.692L114.779 205.338ZM28.4246 290.697L113.715 205.692L113.362 205.338L28.0716 290.343L28.4246 290.697ZM28.4246 290.343L-56.8661 205.338L-57.219 205.692L28.0716 290.697L28.4246 290.343ZM-57.0425 205.765H113.539V205.265H-57.0425V205.765ZM114.542 204.265H-58.0459V204.765H114.542V204.265ZM-57.8694 204.338L-59.0127 203.198L-59.3657 203.553L-58.2224 204.692L-57.8694 204.338ZM-58.9392 203.375V-217.146H-59.4392V203.375H-58.9392ZM-58.9392 -217.146C-58.9392 -217.442 -58.9384 -217.738 -58.9366 -218.034L-59.4366 -218.037C-59.4384 -217.74 -59.4392 -217.443 -59.4392 -217.146H-58.9392ZM-59.3631 -217.858L239.487 79.9902L239.84 79.636L-59.0101 -218.212L-59.3631 -217.858ZM114.718 204.692L239.84 79.9902L239.487 79.636L114.366 204.338L114.718 204.692ZM239.693 80.8427L115.782 204.338L116.135 204.692L240.046 81.1968L239.693 80.8427ZM239.619 81.0197V82.1243H240.119V81.0197H239.619ZM239.869 82.3743H240.869V81.8743H239.869V82.3743ZM241.119 82.1243V81.0149H240.619V82.1243H241.119ZM240.693 81.1919L364.608 204.692L364.961 204.338L241.046 80.8378L240.693 81.1919ZM364.785 204.265H115.959V204.765H364.785V204.265ZM240.903 79.9901L366.025 204.692L366.378 204.338L241.256 79.636L240.903 79.9901ZM366.201 204.765H538.788V204.265H366.201V204.765ZM538.965 204.692L540.104 203.556L539.751 203.202L538.612 204.338L538.965 204.692ZM540.177 203.379V-217.145H539.677V203.379H540.177ZM540.177 -217.145C540.177 -217.441 540.177 -217.736 540.175 -218.032L539.675 -218.029C539.677 -217.734 539.677 -217.44 539.677 -217.145H540.177ZM539.748 -218.207L240.903 79.636L241.256 79.9901L540.101 -217.853L539.748 -218.207ZM540.666 -219.012C540.674 -218.39 540.677 -217.768 540.677 -217.145H541.177C541.177 -217.77 541.174 -218.394 541.166 -219.018L540.666 -219.012ZM540.677 -217.145V202.383H541.177V-217.145H540.677ZM541.104 202.56L751.898 -7.52752L751.545 -7.88166L540.751 202.206L541.104 202.56ZM751.898 -7.52752C810.376 -65.8101 810.376 -160.305 751.898 -218.588L751.545 -218.234C809.827 -160.146 809.827 -65.9688 751.545 -7.88166L751.898 -7.52752ZM751.898 -218.588C726.671 -243.73 694.684 -258.025 661.769 -261.476L661.717 -260.979C694.523 -257.54 726.403 -243.292 751.545 -218.234L751.898 -218.588ZM661.769 -261.476C618.646 -265.997 573.932 -251.902 540.741 -219.193L541.091 -218.837C574.171 -251.436 618.736 -265.484 661.717 -260.979L661.769 -261.476ZM537.785 205.265H367.205V205.765H537.785V205.265ZM367.028 205.692L452.318 290.696L452.671 290.342L367.381 205.338L367.028 205.692ZM452.671 290.696L537.961 205.692L537.608 205.338L452.318 290.342L452.671 290.696ZM452.318 291.754L240.903 502.46L241.256 502.814L452.671 292.108L452.318 291.754ZM452.67 713.165L241.256 502.46L240.903 502.814L452.317 713.519L452.67 713.165ZM539.751 626.023L452.317 713.165L452.67 713.519L540.104 626.378L539.751 626.023ZM539.677 379.071V626.201H540.177V379.071H539.677ZM452.318 292.108L539.751 379.248L540.104 378.894L452.671 291.754L452.318 292.108ZM451.961 713.871L240.548 503.166L240.195 503.52L451.608 714.225L451.961 713.871ZM364.366 801.526L451.961 714.225L451.608 713.871L364.013 801.172L364.366 801.526ZM116.549 801.599H364.19V801.099H116.549V801.599ZM28.7799 714.227L116.373 801.526L116.726 801.172L29.1328 713.872L28.7799 714.227ZM240.195 503.166L28.7799 713.872L29.1328 714.227L240.548 503.52L240.195 503.166ZM539.025 205.338L453.026 291.048L453.379 291.402L539.378 205.692L539.025 205.338ZM539.927 205.265H539.201V205.765H539.927V205.265ZM540.177 377.659V205.515H539.677V377.659H540.177ZM453.026 291.402L539.751 377.836L540.104 377.482L453.379 291.048L453.026 291.402ZM-483.636 801.04L-184.407 502.815L-184.76 502.461L-483.989 800.686L-483.636 801.04ZM-484.12 801.525C-483.959 801.363 -483.797 801.202 -483.636 801.04L-483.989 800.686C-484.151 800.848 -484.313 801.01 -484.474 801.173L-484.12 801.525ZM-484.297 801.099C-531.231 801.099 -573.112 779.478 -600.512 745.656L-600.901 745.971C-573.409 779.905 -531.388 801.599 -484.297 801.599V801.099ZM-600.512 745.656C-621.298 719.998 -633.749 687.321 -633.749 651.736H-634.249C-634.249 687.44 -621.756 720.227 -600.901 745.971L-600.512 745.656ZM-633.749 651.736C-633.749 569.246 -566.838 502.373 -484.297 502.373V501.873C-567.114 501.873 -634.249 568.969 -634.249 651.736H-633.749ZM-484.297 502.373H-185.099V501.873H-484.297V502.373ZM-185.276 502.3L-184.76 502.815L-184.407 502.46L-184.923 501.946L-185.276 502.3ZM-59.0127 1223.49L239.838 925.637L239.485 925.283L-59.3657 1223.13L-59.0127 1223.49ZM-59.4392 802.349V1223.31H-58.9392V802.349H-59.4392ZM116.136 802.099H-59.1892V802.599H116.136V802.099ZM239.838 925.283L116.313 802.172L115.96 802.526L239.485 925.637L239.838 925.283ZM-59.9389 1224.3L-59.9392 1224.01L-60.4392 1224.01L-60.4389 1224.3L-59.9389 1224.3ZM-181.029 1266.75C-137.912 1271.27 -93.2031 1257.18 -60.0134 1224.48L-60.3644 1224.12C-93.4429 1256.71 -138.002 1270.76 -180.977 1266.25L-181.029 1266.75ZM-271.158 1223.86C-245.931 1249 -213.944 1263.3 -181.029 1266.75L-180.977 1266.25C-213.783 1262.81 -245.662 1248.57 -270.805 1223.51L-271.158 1223.86ZM-271.158 1012.8C-329.636 1071.08 -329.636 1165.58 -271.158 1223.86L-270.805 1223.51C-329.087 1165.42 -329.087 1071.24 -270.805 1013.16L-271.158 1012.8ZM-60.3657 802.716L-271.158 1012.8L-270.805 1013.16L-60.0127 803.071L-60.3657 802.716ZM-59.9392 1224.01V802.893H-60.4392V1224.01H-59.9392ZM115.309 801.172L28.4231 714.577L28.0701 714.931L114.956 801.526L115.309 801.172ZM-58.6396 801.599H115.133V801.099H-58.6396V801.599ZM28.0701 714.577L-58.8161 801.172L-58.4631 801.526L28.4231 714.931L28.0701 714.577ZM27.7147 713.871L-59.0127 627.434L-59.3657 627.788L27.3618 714.225L27.7147 713.871ZM-59.0127 800.662L27.7147 714.225L27.3618 713.871L-59.3657 800.308L-59.0127 800.662ZM-59.4392 627.611V800.485H-58.9392V627.611H-59.4392ZM240.546 924.577L117.729 802.172L117.376 802.526L240.193 924.931L240.546 924.577ZM363.01 802.172L240.193 924.577L240.546 924.931L363.363 802.526L363.01 802.172ZM117.553 802.599H363.187V802.099H117.553V802.599ZM240.901 925.637L539.751 1223.48L540.104 1223.13L241.254 925.283L240.901 925.637ZM364.427 802.172L240.901 925.283L241.254 925.637L364.78 802.526L364.427 802.172ZM539.927 802.099H364.603V802.599H539.927V802.099ZM540.177 1223.31V802.349H539.677V1223.31H540.177ZM365.607 801.599H539.38V801.099H365.607V801.599ZM452.317 714.576L365.43 801.172L365.783 801.526L452.67 714.931L452.317 714.576ZM539.556 801.172L452.67 714.576L452.317 714.931L539.203 801.526L539.556 801.172ZM453.025 714.225L539.751 800.66L540.104 800.306L453.378 713.871L453.025 714.225ZM539.751 627.435L453.025 713.871L453.378 714.225L540.104 627.789L539.751 627.435ZM540.177 800.483V627.612H539.677V800.483H540.177ZM540.677 626.616V801.349H541.177V626.616H540.677ZM664.44 503.164L540.751 626.439L541.104 626.793L664.793 503.519L664.44 503.164ZM963.802 801.172L664.793 503.164L664.44 503.519L963.449 801.526L963.802 801.172ZM540.927 801.599H963.626V801.099H540.927V801.599ZM664.793 502.107L962.204 205.692L961.851 205.338L664.44 501.753L664.793 502.107ZM540.751 378.833L664.44 502.107L664.793 501.753L541.104 378.479L540.751 378.833ZM540.677 205.515V378.656H541.177V205.515H540.677ZM962.028 205.265H540.927V205.765H962.028V205.265ZM663.731 502.459L540.751 625.027L541.104 625.381L664.084 502.813L663.731 502.459ZM540.751 380.245L663.731 502.813L664.084 502.459L541.104 379.89L540.751 380.245ZM541.177 625.204V380.067H540.677V625.204H541.177ZM-271.866 -6.82357L-60.3657 203.968L-60.0127 203.614L-271.513 -7.17771L-271.866 -6.82357ZM-482.928 -6.82354C-424.645 -64.9112 -330.149 -64.9112 -271.866 -6.82357L-271.513 -7.17771C-329.991 -65.4598 -424.803 -65.4598 -483.281 -7.17768L-482.928 -6.82354ZM-525.816 82.7022C-522.366 50.0068 -508.07 18.2346 -482.928 -6.82354L-483.281 -7.17768C-508.507 17.9642 -522.851 49.8442 -526.314 82.6497L-525.816 82.7022ZM-482.928 203.528C-516.068 170.499 -530.365 125.801 -525.816 82.7022L-526.314 82.6497C-530.877 125.893 -516.533 170.742 -483.281 203.883L-482.928 203.528ZM-482.116 204.338L-482.928 203.528L-483.281 203.883L-482.468 204.692L-482.116 204.338ZM-60.1892 204.265H-482.292V204.765H-60.1892V204.265ZM-60.4392 203.791V204.515H-59.9392V203.791H-60.4392ZM541.623 802.526L752.253 1012.45L752.606 1012.1L541.976 802.172L541.623 802.526ZM964.624 802.099H541.8V802.599H964.624V802.099ZM1007.05 922.623C1011.58 879.719 997.497 835.235 964.801 802.173L964.446 802.525C997.032 835.476 1011.07 879.81 1006.56 922.57L1007.05 922.623ZM964.021 1012.45C989.247 987.308 1003.59 955.428 1007.05 922.623L1006.56 922.57C1003.11 955.265 988.81 987.038 963.668 1012.1L964.021 1012.45ZM752.253 1012.45C810.731 1070.73 905.543 1070.73 964.021 1012.45L963.668 1012.1C905.385 1070.18 810.889 1070.18 752.606 1012.1L752.253 1012.45ZM240.046 78.4293L-58.6812 -219.296L-59.0342 -218.942L239.693 78.7835L240.046 78.4293ZM239.619 -217.146V78.6064H240.119V-217.146H239.619ZM90.34 -365.75C172.788 -365.75 239.619 -299.214 239.619 -217.146H240.119C240.119 -299.493 173.062 -366.25 90.34 -366.25V-365.75ZM-3.52878 -332.7C22.1145 -353.369 54.7736 -365.75 90.34 -365.75V-366.25C54.6556 -366.25 21.8865 -353.827 -3.84256 -333.09L-3.52878 -332.7ZM-58.922 -219.428C-58.2303 -265.168 -36.7798 -305.9 -3.52878 -332.7L-3.84255 -333.09C-37.2041 -306.2 -58.7279 -265.331 -59.4219 -219.435L-58.922 -219.428ZM-58.6812 -219.296C-58.786 -219.401 -58.8909 -219.505 -58.996 -219.609L-59.3479 -219.254C-59.2432 -219.15 -59.1387 -219.046 -59.0342 -218.942L-58.6812 -219.296Z" fill="url(#paint0_radial_1672_2798)" fill-opacity="0.69"/>
</g>
<defs>
<radialGradient id="paint0_radial_1672_2798" cx="0" cy="0" r="1" gradientUnits="userSpaceOnUse" gradientTransform="translate(240.369 503.431) rotate(90) scale(870.431 875.369)">
<stop offset="0.1" stop-color="#152CB6"/>
<stop offset="1" stop-color="white"/>
</radialGradient>
<clipPath id="clip0_1672_2798">
<rect width="1440" height="1180" fill="white"/>
</clipPath>
</defs>
</svg>
